<?xml version="1.0" standalone="no"?>
<!DOCTYPE svg PUBLIC "-//W3C//DTD SVG 20010904//EN"
 "http://www.w3.org/TR/2001/REC-SVG-20010904/DTD/svg10.dtd">
<svg version="1.0" xmlns="http://www.w3.org/2000/svg"
 width="600.000000pt" height="665.000000pt" viewBox="0 0 600.000000 665.000000"
 preserveAspectRatio="xMidYMid meet">

<g transform="translate(0.000000,665.000000) scale(0.100000,-0.100000)"
fill="#000000" stroke="none">
<path d="M3540 6470 c0 -56 3 -70 15 -70 10 0 15 10 15 30 0 27 3 30 30 30 27
0 30 -3 30 -30 0 -20 5 -30 15 -30 12 0 15 14 15 70 0 56 -3 70 -15 70 -9 0
-15 -10 -15 -26 0 -23 -3 -25 -32 -22 -28 2 -32 7 -30 26 2 15 -2 22 -12 22
-13 0 -16 -13 -16 -70z"/>
<path d="M3700 6470 c0 -88 17 -93 60 -17 32 55 33 55 30 -10 -1 -33 2 -43 14
-43 13 0 16 13 16 70 0 85 -17 93 -58 25 -15 -25 -30 -45 -34 -45 -5 0 -8 20
-8 45 0 25 -4 45 -10 45 -6 0 -10 -30 -10 -70z"/>
<path d="M3850 6509 c0 -49 16 -69 55 -69 28 0 35 -4 35 -20 0 -11 7 -20 15
-20 12 0 15 14 15 70 0 54 -3 70 -14 70 -10 0 -16 -13 -18 -37 -5 -64 -62 -57
-60 7 0 20 -4 30 -14 30 -9 0 -14 -11 -14 -31z"/>
<path d="M4025 6526 c-14 -10 -20 -26 -20 -56 0 -30 6 -46 20 -56 24 -18 66
-18 91 0 27 20 14 28 -23 14 -25 -9 -35 -9 -47 1 -27 23 -18 31 34 31 46 0 50
2 50 23 0 48 -63 74 -105 43z m75 -21 c11 -13 7 -15 -30 -15 -37 0 -41 2 -30
15 7 8 20 15 30 15 10 0 23 -7 30 -15z"/>
<path d="M4170 6470 c0 -50 4 -70 13 -70 8 0 12 18 12 58 0 55 1 57 28 60 42
5 32 22 -13 22 l-40 0 0 -70z"/>
<path d="M4281 6527 c-21 -26 -24 -75 -7 -102 20 -31 74 -35 99 -7 23 25 22
85 -1 105 -22 20 -75 22 -91 4z m79 -26 c14 -27 13 -47 -6 -65 -22 -23 -41
-20 -60 9 -15 23 -15 27 0 50 20 30 51 33 66 6z"/>
<path d="M182 6518 c3 -7 19 -14 36 -16 l32 -3 0 -85 c0 -49 4 -84 10 -84 6 0
10 35 10 84 l0 85 32 3 c17 2 33 9 36 16 3 9 -17 12 -78 12 -61 0 -81 -3 -78
-12z"/>
<path d="M369 6460 l-24 -20 48 7 c38 5 47 3 47 -10 0 -9 -13 -18 -32 -22 -43
-9 -58 -22 -58 -51 0 -27 17 -33 81 -32 l45 1 -4 61 c-4 65 -18 86 -58 86 -12
0 -32 -9 -45 -20z m71 -85 c-13 -16 -70 -21 -70 -7 0 16 13 22 48 22 29 0 33
-2 22 -15z"/>
<path d="M520 6405 c0 -43 4 -75 10 -75 6 0 10 14 10 30 0 17 4 30 9 30 6 0
18 -13 28 -30 9 -16 23 -30 30 -30 17 0 17 1 -11 38 -20 28 -22 37 -12 57 6
14 17 25 24 25 14 0 16 16 3 25 -12 7 -38 -19 -46 -45 -10 -32 -25 -23 -25 15
0 19 -4 35 -10 35 -6 0 -10 -32 -10 -75z"/>
<path d="M806 6473 c-3 -3 -6 -37 -6 -75 0 -55 3 -68 15 -68 9 0 15 6 14 13
-6 44 1 57 31 57 28 0 30 -3 30 -35 0 -25 4 -35 15 -35 13 0 15 13 13 73 -2
42 -7 71 -13 69 -5 -1 -10 -12 -10 -25 0 -18 -7 -23 -33 -25 -28 -3 -32 0 -32
22 0 25 -12 41 -24 29z"/>
<path d="M992 6473 c-20 -8 -44 -63 -38 -88 13 -51 69 -72 112 -41 24 18 14
29 -17 18 -28 -11 -69 4 -69 25 0 9 16 13 54 13 l55 0 -10 29 c-13 36 -54 57
-87 44z m52 -29 c29 -11 16 -24 -24 -24 -38 0 -54 13 -27 23 18 8 33 8 51 1z"/>
<path d="M3310 6410 c0 -5 7 -10 15 -10 8 0 15 5 15 10 0 6 -7 10 -15 10 -8 0
-15 -4 -15 -10z"/>
<path d="M3390 6410 c0 -5 7 -10 15 -10 8 0 15 5 15 10 0 6 -7 10 -15 10 -8 0
-15 -4 -15 -10z"/>
<path d="M3460 6410 c0 -5 9 -10 20 -10 11 0 20 5 20 10 0 6 -9 10 -20 10 -11
0 -20 -4 -20 -10z"/>
<path d="M640 6340 c0 -5 5 -10 11 -10 6 0 8 -9 4 -21 -5 -15 -4 -19 4 -15 17
11 14 56 -4 56 -8 0 -15 -4 -15 -10z"/>
<path d="M3306 6203 c-3 -3 -6 -37 -6 -75 0 -54 3 -68 15 -68 10 0 15 11 15
35 0 32 2 35 30 35 28 0 30 -3 30 -35 0 -24 5 -35 15 -35 12 0 15 15 15 76 0
56 -3 75 -12 72 -7 -3 -14 -17 -16 -32 -3 -24 -7 -27 -35 -24 -26 2 -31 7 -29
25 3 22 -10 38 -22 26z"/>
<path d="M3482 6194 c-17 -12 -22 -25 -22 -58 0 -65 46 -95 101 -66 32 17 22
31 -18 25 -21 -3 -44 -2 -52 4 -24 15 -2 31 45 31 40 0 44 2 44 24 0 26 -33
56 -60 56 -9 0 -26 -7 -38 -16z m62 -20 c28 -11 17 -24 -18 -24 -36 0 -56 14
-34 23 19 8 34 8 52 1z"/>
<path d="M3697 6203 c-4 -3 -7 -37 -7 -75 0 -78 18 -92 48 -37 9 17 25 41 34
53 17 21 17 20 18 -31 0 -29 5 -53 10 -53 6 0 10 32 10 75 0 91 -13 97 -53 25
-16 -28 -31 -50 -35 -50 -4 0 -6 18 -4 41 4 39 -7 67 -21 52z"/>
<path d="M3868 6199 c-30 -17 -21 -30 17 -23 38 7 48 -8 18 -25 -16 -8 -15
-11 7 -29 23 -19 23 -21 7 -28 -10 -3 -29 -1 -43 6 -31 17 -38 10 -18 -18 16
-24 44 -28 75 -12 16 9 18 19 15 67 -5 69 -31 90 -78 62z"/>
<path d="M3989 6206 c-8 -8 3 -146 12 -146 5 0 9 26 10 58 l1 57 20 -57 c11
-32 25 -58 32 -58 7 0 18 18 25 40 17 58 34 62 26 6 -6 -39 -5 -46 9 -46 13 0
16 13 16 76 0 65 -2 75 -17 72 -10 -2 -26 -26 -39 -58 l-22 -55 -11 28 c-6 16
-11 34 -11 40 -1 26 -37 57 -51 43z"/>
<path d="M4212 6203 c-21 -8 -44 -62 -36 -86 15 -52 59 -71 105 -47 31 17 22
28 -18 24 -21 -3 -44 -1 -52 4 -24 17 -1 32 50 32 47 0 50 1 44 23 -13 42 -55
66 -93 50z m52 -29 c28 -11 17 -24 -18 -24 -36 0 -56 14 -34 23 19 8 34 8 52
1z"/>
<path d="M4346 6203 c-3 -3 -6 -37 -6 -75 0 -55 3 -68 16 -68 12 0 15 8 12 33
-3 30 -1 32 30 35 31 3 32 2 32 -32 0 -25 4 -36 15 -36 12 0 15 15 15 76 0 56
-3 75 -12 71 -7 -2 -13 -15 -13 -28 0 -21 -5 -24 -35 -24 -30 0 -35 3 -32 22
3 22 -10 38 -22 26z"/>
<path d="M4522 6204 c-7 -3 -17 -15 -23 -26 -9 -16 -7 -24 10 -42 l21 -23 -20
-18 c-11 -10 -20 -22 -20 -27 0 -16 23 -7 42 17 26 34 58 33 58 -1 0 -16 5
-24 13 -21 8 2 12 26 12 73 l0 69 -40 2 c-22 1 -46 0 -53 -3z m68 -44 c0 -15
-7 -20 -29 -20 -31 0 -47 13 -36 30 3 6 19 10 36 10 22 0 29 -5 29 -20z"/>
<path d="M4640 6195 c0 -9 9 -15 25 -15 24 0 25 -3 25 -60 0 -33 4 -60 10 -60
6 0 10 27 10 60 0 57 1 60 25 60 16 0 25 6 25 15 0 12 -13 15 -60 15 -47 0
-60 -3 -60 -15z"/>
<path d="M4790 6135 l0 -75 43 0 c48 0 67 13 67 46 0 27 -17 41 -55 46 -24 2
-31 8 -33 31 -7 57 -22 24 -22 -48z m79 -18 c14 -18 4 -27 -31 -27 -21 0 -28
5 -28 20 0 24 41 28 59 7z"/>
<path d="M5020 6135 c0 -93 15 -98 59 -22 l31 52 0 -52 c0 -41 4 -53 15 -53
13 0 15 12 13 72 -2 43 -8 73 -15 75 -6 2 -24 -19 -40 -46 -15 -28 -31 -51
-35 -51 -5 0 -8 23 -8 50 0 28 -4 50 -10 50 -6 0 -10 -32 -10 -75z"/>
<path d="M527 6172 c-26 -28 -23 -136 3 -162 43 -43 110 -9 110 55 0 58 -63
98 -98 63 -9 -9 -12 -8 -12 5 0 21 30 37 69 37 16 0 33 5 36 10 4 6 -13 10
-43 10 -35 0 -54 -5 -65 -18z m83 -78 c10 -11 11 -23 4 -42 -17 -48 -84 -38
-84 12 0 43 53 63 80 30z"/>
<path d="M190 6040 c0 -85 2 -100 16 -100 12 0 15 7 12 30 -5 31 5 49 17 30
21 -34 85 19 85 71 0 50 -57 88 -87 58 -8 -8 -13 -8 -17 0 -18 29 -26 3 -26
-89z m95 25 c0 -35 -3 -40 -24 -43 -26 -4 -41 12 -41 44 0 27 20 45 45 42 16
-2 20 -11 20 -43z"/>
<path d="M368 6129 c-32 -18 -19 -29 27 -22 35 4 45 3 45 -9 0 -9 -16 -18 -42
-24 -39 -8 -43 -12 -46 -41 -4 -36 9 -42 81 -40 l37 1 0 61 c0 34 -5 66 -12
73 -15 15 -66 15 -90 1z m72 -83 c0 -15 -21 -26 -51 -26 -30 0 -22 28 9 33 15
2 30 5 35 6 4 0 7 -5 7 -13z"/>
<path d="M690 6120 c-28 -28 -26 -81 3 -108 47 -44 107 -16 107 49 0 46 -27
79 -65 79 -14 0 -34 -9 -45 -20z m78 -22 c30 -30 3 -83 -39 -76 -45 6 -42 88
4 88 13 0 28 -5 35 -12z"/>
<path d="M817 6134 c-10 -11 3 -24 24 -24 17 0 19 -7 19 -61 0 -80 24 -77 28
4 3 48 6 56 24 59 12 2 23 9 26 16 3 9 -13 12 -55 12 -33 0 -63 -3 -66 -6z"/>
<path d="M978 6129 c-32 -18 -19 -29 27 -22 36 5 45 3 45 -9 0 -10 -13 -18
-36 -21 -43 -7 -64 -23 -64 -48 0 -26 28 -38 83 -36 l47 2 0 62 c0 51 -3 64
-19 73 -25 13 -61 12 -83 -1z m72 -83 c0 -15 -21 -26 -51 -26 -30 0 -22 28 9
33 15 2 30 5 35 6 4 0 7 -5 7 -13z"/>
<path d="M1131 6114 c-28 -35 -26 -69 4 -99 29 -30 55 -32 86 -5 l24 21 -32
-6 c-40 -8 -73 2 -73 21 0 10 13 14 50 14 43 0 50 3 50 20 0 27 -35 60 -64 60
-15 0 -33 -11 -45 -26z m84 -14 c4 -6 -10 -10 -35 -10 -25 0 -39 4 -35 10 3 6
19 10 35 10 16 0 32 -4 35 -10z"/>
<path d="M1252 6128 c3 -7 14 -14 26 -16 20 -3 22 -9 22 -63 0 -46 3 -59 15
-59 12 0 15 13 15 59 0 54 2 60 22 63 12 2 23 9 26 16 3 9 -14 12 -63 12 -49
0 -66 -3 -63 -12z"/>
<path d="M1370 6005 c0 -8 7 -15 15 -15 8 0 15 7 15 15 0 8 -7 15 -15 15 -8 0
-15 -7 -15 -15z"/>
<path d="M3306 5864 c-9 -23 0 -30 19 -14 16 13 45 7 45 -10 0 -5 -9 -10 -20
-10 -11 0 -20 -5 -20 -11 0 -6 9 -13 20 -16 24 -6 26 -31 4 -40 -10 -4 -22 1
-29 10 -12 16 -35 23 -35 11 0 -3 5 -14 10 -25 12 -22 71 -27 88 -6 11 13 9
98 -3 117 -10 17 -72 12 -79 -6z"/>
<path d="M3440 5865 c-18 -22 -8 -26 28 -13 25 10 34 10 44 0 15 -15 -4 -32
-38 -32 -28 0 -46 -23 -42 -52 3 -21 9 -23 63 -25 l60 -1 -3 56 c-2 31 -9 63
-14 70 -15 17 -83 15 -98 -3z m80 -73 c0 -14 -23 -32 -41 -32 -24 0 -35 20
-18 31 18 11 59 12 59 1z"/>
<path d="M3600 5878 c-1 -2 -2 -32 -2 -67 -1 -42 2 -66 10 -69 8 -2 12 14 12
57 l0 61 30 0 30 0 0 -60 c0 -47 3 -60 15 -60 12 0 15 14 15 70 l0 70 -55 0
c-30 0 -55 -1 -55 -2z"/>
<path d="M3740 5877 c0 -2 11 -32 25 -66 26 -63 26 -101 -1 -101 -17 0 -19
-16 -3 -26 19 -11 47 28 73 105 29 82 30 91 17 91 -5 0 -17 -23 -26 -50 -9
-28 -20 -48 -24 -45 -5 2 -14 25 -21 50 -7 25 -19 45 -26 45 -8 0 -14 -1 -14
-3z"/>
<path d="M3905 5864 c-11 -12 -15 -30 -13 -63 3 -39 7 -47 29 -55 33 -11 75
-1 83 20 9 25 -1 30 -22 11 -35 -32 -72 -14 -72 33 0 45 48 69 68 34 5 -9 14
-15 21 -13 8 3 7 11 -4 27 -19 26 -66 30 -90 6z"/>
<path d="M4020 5870 c0 -5 9 -10 20 -10 18 0 20 -7 20 -60 0 -47 3 -60 15 -60
12 0 15 13 15 60 0 57 1 60 25 60 14 0 25 5 25 10 0 6 -27 10 -60 10 -33 0
-60 -4 -60 -10z"/>
<path d="M4163 5810 c2 -85 20 -93 57 -25 14 25 28 45 32 45 5 0 8 -20 8 -45
0 -25 5 -45 10 -45 6 0 10 30 10 70 0 86 -13 90 -58 18 l-32 -53 0 53 c0 38
-4 52 -14 52 -12 0 -14 -15 -13 -70z"/>
<path d="M4310 5871 c0 -5 10 -11 23 -13 19 -3 22 -10 25 -60 2 -32 7 -58 12
-58 5 0 10 26 12 58 3 50 6 57 26 60 46 7 20 22 -38 22 -33 0 -60 -4 -60 -9z"/>
<path d="M4460 5810 l0 -70 43 0 c47 0 67 13 67 45 0 30 -19 45 -57 45 -29 0
-33 3 -33 25 0 14 -4 25 -10 25 -6 0 -10 -30 -10 -70z m86 -21 c8 -14 -14 -29
-43 -29 -16 0 -23 6 -23 20 0 15 7 20 29 20 17 0 33 -5 37 -11z"/>
<path d="M4660 5810 c0 -55 3 -70 15 -70 10 0 14 9 11 30 -4 40 6 38 40 -7 32
-42 46 -28 15 16 -18 25 -19 33 -10 55 7 14 16 26 21 26 4 0 8 5 8 10 0 23
-33 8 -43 -20 -6 -16 -16 -30 -22 -30 -7 0 -10 12 -7 30 3 23 0 30 -12 30 -13
0 -16 -12 -16 -70z"/>
<path d="M4805 5866 c-14 -10 -20 -26 -20 -56 0 -61 50 -89 106 -60 24 14 27
91 3 114 -19 20 -64 21 -89 2z m73 -18 c22 -22 14 -67 -13 -80 -31 -14 -55 3
-55 41 0 30 16 51 40 51 9 0 21 -5 28 -12z"/>
<path d="M4958 5828 c-3 -31 -12 -56 -22 -63 -21 -16 -22 -65 -1 -65 10 0 15
7 13 18 -3 14 6 17 55 20 51 3 57 1 57 -17 0 -11 5 -23 10 -26 11 -7 14 57 3
68 -3 4 -6 32 -5 62 l0 55 -53 0 -52 0 -5 -52z m82 -18 l0 -50 -35 0 c-36 0
-36 0 -30 38 10 58 13 62 40 62 23 0 25 -3 25 -50z"/>
<path d="M239 5843 c-20 -54 -61 -158 -66 -165 -2 -5 2 -8 10 -8 7 0 21 16 30
35 14 30 21 35 52 35 32 0 38 -4 51 -35 8 -19 21 -35 29 -35 13 0 13 5 -1 38
-8 20 -27 65 -42 100 -28 67 -47 78 -63 35z m45 -60 c6 -20 4 -23 -18 -23 -29
0 -31 6 -15 47 11 30 19 24 33 -24z"/>
<path d="M460 5777 c0 -52 13 -67 57 -67 26 0 33 -4 33 -20 0 -11 5 -20 10
-20 6 0 10 32 10 75 0 77 -16 105 -22 38 -3 -35 -6 -38 -33 -38 -27 0 -30 3
-33 38 -4 51 -22 47 -22 -6z"/>
<path d="M600 5806 c0 -8 10 -16 22 -18 19 -3 21 -9 21 -60 -1 -44 2 -58 13
-58 10 0 14 15 14 60 0 58 1 60 26 60 16 0 24 5 22 13 -3 7 -27 13 -61 15 -45
2 -57 0 -57 -12z"/>
<path d="M762 5804 c-17 -12 -22 -25 -22 -59 0 -51 19 -75 59 -75 44 0 63 21
65 69 1 67 -51 101 -102 65z m67 -28 c19 -23 9 -68 -16 -77 -27 -10 -53 12
-53 45 0 41 44 62 69 32z"/>
<path d="M1002 5804 c-29 -20 -31 -93 -4 -117 23 -21 62 -22 88 -3 26 20 14
28 -24 17 -24 -7 -36 -6 -47 6 -23 22 -9 33 41 33 37 0 44 3 44 20 0 25 -34
60 -58 60 -10 0 -28 -7 -40 -16z m62 -20 c29 -11 16 -24 -24 -24 -38 0 -54 13
-27 23 18 8 33 8 51 1z"/>
<path d="M1162 5804 c-29 -20 -31 -93 -4 -117 25 -23 65 -21 87 3 21 23 13 39
-9 21 -8 -7 -27 -11 -43 -9 -22 2 -29 9 -31 31 -6 50 33 74 69 41 10 -9 19
-11 23 -5 8 12 -32 51 -54 51 -8 0 -26 -7 -38 -16z"/>
<path d="M1300 5761 c0 -43 -4 -60 -15 -65 -23 -9 -18 -28 8 -24 19 3 22 10
25 61 l3 57 34 0 35 0 0 -60 c0 -33 4 -60 10 -60 6 0 10 32 10 75 l0 75 -55 0
-55 0 0 -59z"/>
<path d="M1456 5813 c-3 -3 -6 -37 -6 -75 0 -85 18 -91 58 -18 15 27 30 50 35
50 4 0 7 -22 7 -50 0 -27 5 -50 10 -50 6 0 10 32 10 76 0 89 -9 92 -57 18
l-33 -49 0 47 c0 44 -10 65 -24 51z"/>
<path d="M1626 5693 c-11 -11 -6 -23 9 -23 8 0 15 4 15 9 0 13 -16 22 -24 14z"/>
<path d="M1780 5685 c0 -16 16 -20 24 -6 3 5 -1 11 -9 15 -9 3 -15 0 -15 -9z"/>
<path d="M1700 5680 c0 -5 7 -10 15 -10 8 0 15 5 15 10 0 6 -7 10 -15 10 -8 0
-15 -4 -15 -10z"/>
<path d="M4086 5584 c-9 -8 -16 -20 -16 -25 0 -12 17 -12 25 1 3 6 20 10 36
10 41 0 48 -25 15 -59 -26 -27 -35 -61 -16 -61 6 0 10 6 10 13 0 7 14 26 30
42 17 16 30 36 30 45 0 43 -81 67 -114 34z"/>
<path d="M3322 5534 c-29 -20 -31 -93 -4 -117 25 -23 65 -21 87 3 19 21 13 42
-7 22 -7 -7 -25 -12 -40 -12 -22 0 -29 6 -34 27 -13 49 30 80 66 48 26 -23 36
-1 10 25 -24 24 -48 25 -78 4z"/>
<path d="M3450 5475 c0 -43 4 -75 10 -75 6 0 10 16 10 35 0 33 2 35 35 35 33
0 35 -2 35 -36 0 -24 4 -34 13 -31 8 2 12 26 12 72 0 46 -4 70 -12 73 -9 2
-13 -7 -13 -27 0 -29 -3 -31 -35 -31 -32 0 -35 2 -35 30 0 17 -4 30 -10 30 -6
0 -10 -32 -10 -75z"/>
<path d="M3622 5530 c-45 -43 -16 -130 43 -130 62 0 89 90 39 129 -34 26 -54
26 -82 1z m64 -18 c36 -25 19 -85 -23 -80 -36 4 -50 29 -35 62 11 25 36 33 58
18z"/>
<path d="M3760 5475 l0 -75 49 0 c63 0 75 14 65 77 -9 63 -18 73 -70 73 l-44
0 0 -75z m88 33 c-7 -20 -58 -23 -58 -4 0 11 10 16 31 16 20 0 29 -4 27 -12z
m1 -51 c14 -18 4 -27 -31 -27 -21 0 -28 5 -28 20 0 24 41 28 59 7z"/>
<path d="M3929 5531 l-24 -20 45 2 c56 2 64 -14 14 -29 -46 -13 -64 -36 -48
-61 8 -13 26 -18 67 -19 l55 -1 -5 61 c-6 65 -20 86 -59 86 -12 0 -32 -9 -45
-19z m71 -86 c-13 -16 -70 -21 -70 -7 0 16 13 22 48 22 29 0 33 -2 22 -15z"/>
<path d="M754 5483 c0 -27 -4 -78 -9 -115 -7 -59 -5 -72 14 -108 32 -62 83
-122 94 -111 5 5 -7 31 -33 65 -50 66 -59 112 -40 210 12 66 7 106 -13 106 -8
0 -12 -18 -13 -47z"/>
<path d="M4120 5415 c0 -8 5 -15 10 -15 6 0 10 7 10 15 0 8 -4 15 -10 15 -5 0
-10 -7 -10 -15z"/>
<path d="M3780 5187 c0 -42 41 -124 80 -162 34 -32 52 -27 26 7 -59 81 -76
114 -76 150 0 27 -4 38 -15 38 -10 0 -15 -10 -15 -33z"/>
<path d="M5028 5043 c7 -3 16 -2 19 1 4 3 -2 6 -13 5 -11 0 -14 -3 -6 -6z"/>
<path d="M890 4971 c-93 -13 -178 -88 -211 -188 -24 -74 -3 -198 47 -275 17
-25 17 -30 1 -80 -47 -150 -77 -323 -77 -455 0 -71 7 -79 85 -89 25 -4 45 -10
45 -14 0 -5 -24 -11 -52 -15 -103 -13 -218 -83 -218 -131 0 -13 13 -33 31 -48
27 -23 28 -26 10 -26 -40 0 -69 41 -96 135 -31 110 -31 111 1 86 15 -12 35
-21 46 -21 27 0 66 46 74 87 8 40 -20 190 -45 248 -21 49 -73 95 -106 95 -29
0 -55 -34 -55 -72 0 -14 -7 -33 -15 -41 -13 -13 -8 -41 39 -231 30 -118 62
-230 73 -248 27 -48 75 -67 188 -75 l97 -6 -7 -56 c-16 -126 -88 -307 -134
-335 -26 -17 -1 -86 31 -86 21 0 48 32 48 57 0 18 8 21 99 26 55 4 106 4 114
1 9 -3 20 -19 26 -35 15 -45 63 -36 73 13 2 12 -14 31 -46 55 -83 64 -126 171
-126 317 l0 49 41 -6 c47 -6 69 -1 69 17 0 7 19 17 43 23 23 7 52 21 64 32 42
39 42 40 -51 -197 -31 -78 -56 -147 -56 -152 0 -43 47 60 131 285 18 48 22 11
6 -47 -9 -29 -25 -105 -37 -168 -11 -63 -23 -125 -26 -137 -3 -15 0 -23 9 -23
9 0 19 34 31 113 10 61 24 126 31 142 11 26 12 10 9 -117 l-3 -148 29 0 c25 0
29 -4 27 -22 -1 -13 3 -23 11 -22 6 1 25 2 42 3 23 1 31 7 36 27 l7 27 96 -7
c53 -3 185 -6 294 -6 l197 0 10 -26 c8 -21 15 -25 33 -20 12 3 28 6 35 6 6 0
12 9 12 19 0 14 8 21 28 23 l27 3 2 443 3 442 -278 0 c-246 1 -275 2 -258 15
13 10 33 61 59 148 60 206 71 257 58 270 -18 18 -29 -2 -51 -88 -21 -84 -65
-231 -82 -277 -10 -28 -11 -28 -103 -28 -72 0 -95 4 -106 16 -14 17 -56 15
-253 -12 -121 -17 -119 -18 -135 46 -28 118 -51 219 -51 229 0 8 9 7 29 -3 29
-15 136 -36 156 -31 5 2 22 6 38 9 15 4 45 22 67 42 47 42 99 167 107 255 9
99 -48 189 -152 241 -40 20 -81 26 -135 19z m120 -36 c17 -9 30 -20 30 -25 0
-5 9 -12 20 -15 34 -11 70 -57 86 -112 14 -47 14 -59 -1 -115 -21 -84 -74
-188 -108 -213 -23 -16 -44 -20 -108 -20 -71 1 -83 4 -121 31 -58 41 -94 98
-108 171 -33 170 71 311 228 313 29 0 66 -7 82 -15z m-229 -613 c6 -31 18 -79
25 -106 21 -75 21 -76 -37 -76 l-51 0 6 33 c3 17 11 73 18 124 7 50 15 90 19
87 4 -2 13 -30 20 -62z m-287 -115 c25 -37 56 -168 56 -233 0 -114 -66 -127
-123 -25 -28 50 -31 64 -35 166 -4 95 -2 114 12 128 16 15 20 15 47 2 16 -9
35 -25 43 -38z m372 -89 c116 1 152 -2 133 -9 -20 -7 -28 -19 -32 -42 -7 -53
-1 -59 62 -55 l56 3 8 -69 c5 -38 5 -72 0 -76 -4 -5 -42 -2 -83 5 -41 7 -134
23 -207 36 l-131 23 5 90 c5 106 10 127 22 107 7 -10 44 -13 167 -13z m459 11
c-49 -4 -130 -7 -180 -6 l-90 1 70 6 c39 4 120 7 180 7 l110 0 -90 -8z m613
-35 c32 -9 29 -41 -5 -48 -16 -3 -234 -5 -485 -4 -367 1 -458 4 -458 14 0 7 6
16 13 21 6 4 185 10 397 13 212 4 414 7 450 8 36 1 75 -1 88 -4z m12 -338 c0
-145 3 -310 6 -367 3 -63 1 -110 -5 -119 -13 -19 -144 -22 -539 -14 l-292 7 1
341 c1 187 -2 358 -6 379 l-7 38 421 -2 421 -1 0 -262z m-924 93 c58 -10 84
-23 72 -34 -3 -4 -46 5 -94 19 -93 26 -81 34 22 15z m-99 -23 c105 -28 151
-88 100 -132 -81 -69 -385 -69 -472 0 -28 23 -29 24 -12 50 50 75 249 118 384
82z m156 -39 c13 -9 16 -20 11 -44 -7 -36 -19 -36 -27 -1 -2 13 -8 31 -12 41
-8 20 4 22 28 4z m-273 -240 c0 -96 18 -177 51 -231 23 -38 26 -47 12 -41 -34
14 -112 17 -144 6 -18 -6 -34 -10 -36 -8 -1 2 8 31 21 63 14 33 32 103 42 155
21 121 21 119 39 119 12 0 15 -13 15 -63z m67 -296 c14 -8 3 -10 -48 -11 -36
0 -88 -3 -115 -6 -55 -8 -54 1 3 22 41 15 130 13 160 -5z m333 -26 c0 -8 -9
-15 -20 -15 -22 0 -27 15 -7 23 21 9 27 7 27 -8z m690 -4 c0 -10 -30 -24 -37
-17 -3 3 -2 9 2 15 8 13 35 15 35 2z m-924 -37 c-5 -14 -9 -15 -19 -5 -9 9 -9
14 3 21 18 11 24 6 16 -16z m-311 6 c4 -6 1 -18 -6 -26 -12 -14 -14 -14 -26 2
-10 14 -10 19 0 26 16 10 25 10 32 -2z"/>
<path d="M3880 4871 c-77 -25 -133 -73 -163 -140 -25 -58 -18 -149 17 -223
l25 -52 -40 -51 c-70 -88 -150 -196 -156 -211 -4 -10 5 -19 26 -27 36 -13 37
-21 17 -115 -22 -99 -26 -180 -9 -186 7 -3 35 -8 63 -12 72 -9 70 -20 -5 -28
-68 -7 -205 -52 -205 -67 0 -18 -16 -8 -32 22 -21 36 -25 70 -6 51 32 -32 86
11 95 77 7 53 -20 159 -59 228 -37 65 -45 71 -90 66 -33 -5 -38 -9 -44 -39 -3
-19 -12 -34 -20 -34 -16 0 -17 -10 -5 -43 8 -20 6 -29 -11 -43 -15 -14 -19
-27 -14 -52 7 -47 32 -82 59 -82 18 0 26 -12 50 -78 37 -106 88 -194 120 -210
38 -18 144 -34 180 -26 l29 6 -7 -43 c-20 -125 -91 -317 -128 -348 -23 -18
-21 -29 6 -52 42 -35 92 -15 80 32 -5 17 1 19 54 19 101 0 151 -10 156 -31 10
-37 107 -12 107 26 0 8 -15 21 -33 29 -42 17 -100 102 -121 176 -8 30 -16 87
-18 125 l-3 70 38 3 c28 2 37 7 33 17 -4 10 6 16 32 20 54 9 119 34 133 51 10
12 9 22 -4 49 -16 34 -16 35 3 35 17 0 20 -7 20 -48 0 -52 -37 -139 -125 -292
-45 -77 -53 -100 -36 -100 9 0 79 121 129 225 42 85 35 33 -12 -86 -42 -109
-76 -204 -76 -214 0 -3 6 -5 14 -5 8 0 17 12 20 28 15 59 79 222 88 222 6 0 8
-57 7 -142 l-3 -143 32 -15 c17 -8 32 -21 32 -27 0 -9 17 -13 51 -13 41 0 52
4 56 19 4 16 20 19 146 25 78 3 200 6 271 7 119 1 130 0 137 -18 10 -27 79
-20 79 7 0 11 9 20 22 22 l21 3 -3 310 c-4 444 -6 551 -13 562 -4 6 -99 8
-257 5 -148 -3 -250 -1 -250 4 0 5 8 17 18 25 23 20 87 270 109 422 6 41 -9
69 -27 51 -6 -6 -21 -64 -35 -129 -31 -151 -74 -307 -89 -321 -6 -7 -66 -14
-142 -17 -126 -6 -132 -5 -137 14 -4 16 -11 18 -31 13 -44 -11 -98 -11 -203
-1 -118 11 -114 6 -88 112 8 33 14 75 15 93 0 36 19 43 38 12 20 -32 86 -60
142 -60 141 0 250 147 250 337 0 103 -21 138 -103 178 -65 31 -165 43 -217 26z
m199 -42 c34 -17 68 -41 76 -53 38 -58 22 -222 -31 -313 -32 -54 -104 -104
-160 -111 -117 -13 -234 132 -235 293 -1 91 37 149 126 191 73 35 145 33 224
-7z m-336 -476 c-3 -16 -11 -61 -20 -100 -14 -66 -17 -73 -39 -73 -13 0 -24 4
-24 10 0 29 71 190 84 190 2 0 1 -12 -1 -27z m-96 -121 c-9 -34 -16 -42 -34
-42 -13 0 -23 3 -23 6 0 7 63 85 66 81 1 -1 -3 -21 -9 -45z m760 -24 c-3 -7
-5 -2 -5 12 0 14 2 19 5 13 2 -7 2 -19 0 -25z m-10 -40 c-3 -8 -6 -5 -6 6 -1
11 2 17 5 13 3 -3 4 -12 1 -19z m-966 -50 c64 -127 69 -263 9 -263 -49 0 -100
141 -100 275 0 43 1 45 30 47 27 2 33 -3 61 -59z m269 7 c0 -39 9 -43 61 -21
19 8 60 17 92 21 54 7 57 6 57 -14 0 -16 -6 -21 -25 -21 -20 0 -25 -5 -25 -25
0 -13 5 -36 12 -50 12 -26 14 -26 92 -23 l81 3 3 -81 3 -82 -48 5 c-56 5 -122
17 -213 38 -36 8 -83 14 -106 15 -68 0 -76 13 -65 96 6 38 15 93 22 122 9 45
14 52 35 52 21 0 24 -5 24 -35z m86 16 c-10 -16 -56 -20 -56 -5 0 9 11 14 31
14 16 0 28 -4 25 -9z m532 -18 c-10 -2 -28 -2 -40 0 -13 2 -5 4 17 4 22 1 32
-1 23 -4z m-1001 -25 c-3 -8 -6 -5 -6 6 -1 11 2 17 5 13 3 -3 4 -12 1 -19z
m791 15 c-10 -2 -26 -2 -35 0 -10 3 -2 5 17 5 19 0 27 -2 18 -5z m762 -36 c-1
-40 -6 -41 -327 -43 -169 -1 -382 -6 -473 -11 -112 -6 -167 -5 -172 2 -14 19
-8 35 16 41 83 20 956 31 956 11z m-1551 -84 c14 -47 14 -63 1 -63 -14 0 -40
67 -34 85 10 25 23 17 33 -22z m1545 -30 c3 -27 9 -195 13 -375 l6 -327 -24
-5 c-32 -8 -762 -26 -768 -20 -3 3 -6 35 -6 72 -1 37 -2 207 -4 377 l-3 310
84 6 c45 3 221 6 389 7 l306 2 7 -47z m-975 -164 c61 -13 115 -47 119 -76 3
-17 -5 -24 -45 -37 -162 -53 -406 -41 -485 23 -20 18 -21 21 -8 34 15 14 121
52 170 60 52 9 201 7 249 -4z m-289 -159 l85 -18 -65 0 c-70 0 -131 16 -138
38 -3 9 1 11 14 6 11 -5 57 -16 104 -26z m175 -135 c9 -79 18 -115 43 -164 18
-36 32 -65 32 -66 0 -2 -28 -1 -62 2 -35 3 -83 0 -108 -6 -24 -5 -45 -9 -47
-8 -1 2 13 43 31 92 19 50 39 122 46 160 16 93 17 97 37 93 14 -3 20 -22 28
-103z m85 -264 c19 -7 -6 -10 -99 -10 -68 -1 -122 2 -118 5 23 23 163 27 217
5z m970 -21 c0 -5 -7 -10 -15 -10 -8 0 -15 5 -15 10 0 6 7 10 15 10 8 0 15 -4
15 -10z m-890 -20 c0 -9 -50 -23 -57 -17 -2 3 3 12 12 20 15 16 45 13 45 -3z
m260 0 c0 -5 -13 -10 -30 -10 -16 0 -30 5 -30 10 0 6 14 10 30 10 17 0 30 -4
30 -10z m-582 -12 c16 -16 15 -28 -2 -28 -17 0 -38 24 -29 33 9 10 17 9 31 -5z"/>
<path d="M5670 4785 c-8 -9 -8 -15 -2 -15 12 0 26 19 19 26 -2 2 -10 -2 -17
-11z"/>
<path d="M5610 4755 c-14 -8 -20 -14 -15 -14 6 0 21 6 35 14 14 8 21 14 15 14
-5 0 -21 -6 -35 -14z"/>
<path d="M5228 4633 c6 -2 18 -2 25 0 6 3 1 5 -13 5 -14 0 -19 -2 -12 -5z"/>
<path d="M5395 4580 c-3 -5 -1 -10 4 -10 6 0 11 5 11 10 0 6 -2 10 -4 10 -3 0
-8 -4 -11 -10z"/>
<path d="M5111 4544 c0 -11 3 -14 6 -6 3 7 2 16 -1 19 -3 4 -6 -2 -5 -13z"/>
<path d="M5030 4410 c-9 -6 -10 -10 -3 -10 6 0 15 5 18 10 8 12 4 12 -15 0z"/>
<path d="M4900 4350 c-9 -6 -10 -10 -3 -10 6 0 15 5 18 10 8 12 4 12 -15 0z"/>
<path d="M2620 2860 c0 -5 5 -10 10 -10 6 0 10 5 10 10 0 6 -4 10 -10 10 -5 0
-10 -4 -10 -10z"/>
<path d="M237 2853 c133 -2 353 -2 490 0 136 1 28 2 -242 2 -270 0 -381 -1
-248 -2z"/>
<path d="M200 2310 l0 -100 55 0 c82 0 120 46 78 93 -13 15 -15 21 -5 24 20 7
14 51 -10 67 -13 9 -43 16 -70 16 l-48 0 0 -100z m113 58 c9 -27 -6 -38 -49
-38 -40 0 -44 2 -44 25 0 23 4 25 44 25 27 0 46 -5 49 -12z m4 -84 c11 -28
-11 -49 -56 -52 -41 -3 -41 -3 -41 32 0 36 0 36 45 36 33 0 47 -5 52 -16z"/>
<path d="M1150 2390 c-29 -29 -29 -131 1 -161 28 -28 76 -22 102 12 17 23 18
31 8 62 -14 42 -61 68 -86 47 -20 -16 -32 -5 -16 14 7 8 31 16 54 18 59 4 61
28 3 28 -33 0 -52 -6 -66 -20z m78 -72 c22 -22 14 -67 -13 -80 -46 -21 -86 40
-49 76 18 19 45 21 62 4z"/>
<path d="M537 2354 c-3 -3 5 -37 19 -74 24 -68 24 -100 -2 -100 -8 0 -14 -7
-14 -15 0 -20 23 -19 42 3 20 21 71 168 65 185 -4 10 -13 -6 -45 -87 -7 -16
-11 -10 -26 30 -21 54 -29 67 -39 58z"/>
<path d="M815 2348 c-9 -24 -1 -188 10 -191 6 -1 11 12 13 30 3 30 5 31 36 26
27 -4 36 -1 50 18 17 24 21 76 8 95 -14 22 -51 35 -70 25 -13 -7 -22 -7 -30 1
-8 8 -13 7 -17 -4z m98 -52 c8 -23 6 -32 -11 -48 -16 -16 -23 -18 -41 -9 -23
13 -27 41 -10 72 15 29 50 21 62 -15z"/>
<path d="M1440 2346 c0 -9 9 -16 20 -16 18 0 20 -7 20 -60 0 -47 3 -60 15 -60
12 0 15 13 15 60 0 57 1 60 25 60 14 0 25 6 25 13 0 8 -20 13 -60 15 -49 3
-60 0 -60 -12z"/>
<path d="M1897 2353 c-30 -5 -27 -23 4 -23 17 0 19 -7 19 -60 0 -47 3 -60 15
-60 12 0 15 13 15 60 0 58 1 60 26 60 16 0 24 5 22 13 -5 13 -53 18 -101 10z"/>
<path d="M391 2337 c-16 -20 -4 -26 28 -14 30 11 61 5 61 -13 0 -5 -18 -13
-40 -16 -46 -8 -63 -24 -58 -56 3 -21 8 -23 64 -24 l60 -1 -4 61 c-3 33 -10
64 -16 68 -19 13 -83 9 -95 -5z m70 -87 c-26 -23 -30 -23 -51 -10 -13 9 -13
11 0 20 8 5 29 10 45 10 l30 -1 -24 -19z"/>
<path d="M982 2337 c-15 -17 -3 -31 14 -16 16 13 56 8 61 -8 3 -7 -8 -15 -24
-18 -43 -9 -58 -20 -61 -45 -5 -30 13 -39 73 -38 l50 1 -5 66 -5 66 -46 3
c-30 2 -50 -2 -57 -11z m78 -77 c0 -6 -11 -16 -25 -22 -20 -9 -28 -9 -38 1 -9
9 -9 14 3 21 20 13 60 13 60 0z"/>
<path d="M1312 2337 c-18 -21 -24 -62 -13 -90 11 -29 46 -43 85 -33 47 12 55
99 12 128 -18 12 -73 9 -84 -5z m77 -21 c31 -37 -9 -103 -46 -80 -37 23 -24
94 17 94 10 0 23 -6 29 -14z"/>
<path d="M1593 2343 c-7 -2 -13 -11 -13 -19 0 -11 4 -12 19 -4 25 13 58 13 66
-1 10 -15 0 -21 -41 -28 -44 -7 -64 -32 -48 -58 8 -13 26 -18 68 -20 l56 -1 0
57 c0 31 -5 62 -12 69 -12 12 -71 15 -95 5z m77 -83 c0 -17 -49 -35 -61 -23
-6 6 -8 16 -5 22 9 14 66 14 66 1z"/>
<path d="M1763 2342 c-22 -14 -33 -60 -22 -89 6 -15 16 -31 22 -35 21 -13 74
-9 87 7 18 21 6 29 -20 15 -17 -9 -29 -9 -46 -1 -39 17 -28 30 29 33 49 3 52
4 49 28 -2 14 -11 31 -20 38 -18 13 -60 16 -79 4z m61 -18 c29 -11 16 -24 -24
-24 -38 0 -54 13 -27 23 18 8 33 8 51 1z"/>
<path d="M664 2214 c3 -9 6 -22 6 -30 0 -9 5 -12 10 -9 17 10 12 55 -6 55 -11
0 -14 -5 -10 -16z"/>
<path d="M1107 2083 c-4 -3 -7 -36 -7 -72 0 -75 -20 -128 -69 -183 -31 -36
-39 -58 -22 -58 13 0 74 76 97 120 11 22 19 65 22 118 4 75 -1 95 -21 75z"/>
<path d="M5125 1955 c-14 -13 -26 -34 -26 -47 -4 -67 13 -88 71 -88 57 0 87
39 82 107 -4 55 -83 73 -127 28z m96 -27 c3 -60 -23 -93 -64 -83 -22 6 -27 13
-27 37 0 48 16 68 55 68 29 0 35 -4 36 -22z"/>
<path d="M4983 1933 c-56 -16 -70 -33 -29 -33 22 0 27 -8 42 -60 10 -36 22
-60 30 -60 18 0 18 17 -1 70 -20 56 -19 59 11 70 14 6 22 14 19 20 -7 12 -7
12 -72 -7z"/>
<path d="M4875 1901 c-3 -6 -4 -25 0 -42 8 -34 -8 -59 -37 -59 -14 0 -24 12
-35 40 -17 43 -40 49 -35 9 8 -58 53 -87 105 -64 14 6 20 2 24 -14 5 -21 33
-30 33 -10 0 21 -32 134 -40 142 -4 5 -11 4 -15 -2z"/>
<path d="M574 1830 c-70 -16 -137 -78 -170 -155 -8 -20 -14 -66 -14 -112 0
-87 20 -142 70 -199 26 -30 28 -38 19 -61 -6 -15 -13 -65 -16 -110 l-6 -82
-35 29 c-40 33 -51 31 -76 -12 -15 -25 -17 -43 -13 -94 4 -39 2 -64 -3 -64 -6
0 -10 11 -10 24 0 23 -16 44 -25 34 -3 -2 0 -20 5 -38 8 -29 7 -37 -10 -55
-18 -19 -19 -26 -10 -51 6 -16 24 -41 39 -55 22 -20 30 -38 35 -80 10 -73 57
-169 95 -192 34 -20 103 -37 180 -44 l53 -5 -6 -60 c-10 -82 -60 -219 -107
-292 -48 -74 -48 -102 -1 -99 40 1 65 20 59 44 -7 25 11 29 119 29 l94 0 0
-30 c0 -24 4 -30 21 -30 32 0 59 19 59 41 0 19 -25 61 -63 105 -25 30 -74 170
-82 238 l-7 56 48 0 c54 0 51 10 -9 26 l-42 11 38 7 c20 3 52 8 71 11 49 8 99
45 110 83 8 28 26 45 26 25 0 -5 7 -69 15 -143 8 -74 15 -201 15 -281 0 -163
4 -174 59 -163 31 6 32 6 25 -20 -6 -25 -5 -26 40 -26 39 0 46 3 46 20 0 17 7
20 48 20 26 0 161 3 300 7 l252 6 0 -27 c0 -23 4 -26 34 -26 43 0 66 9 66 24
0 6 13 17 29 23 l29 10 7 124 c4 68 5 279 3 469 l-3 345 -292 -4 c-161 -1
-293 0 -293 3 0 4 9 16 19 27 19 21 38 70 106 278 32 101 35 115 22 128 -13
14 -16 13 -26 -6 -13 -23 -46 -122 -81 -241 -13 -41 -31 -91 -41 -111 -16 -33
-23 -37 -71 -42 -29 -4 -93 -7 -143 -7 -123 0 -195 -10 -195 -26 0 -8 -16 -14
-42 -16 -43 -3 -43 -3 -43 -43 l0 -40 70 -3 70 -3 0 -59 c0 -71 3 -69 -156
-72 l-106 -2 -67 59 c-76 68 -95 94 -129 185 -26 70 -71 249 -64 257 3 2 24
-6 48 -19 29 -15 66 -24 109 -26 55 -3 70 0 100 20 79 54 142 187 141 301 0
67 -37 160 -79 200 -57 54 -169 79 -258 57z m181 -41 c61 -28 66 -34 100 -101
42 -86 44 -128 11 -228 -59 -172 -135 -220 -269 -170 -121 45 -193 161 -185
295 3 39 12 85 22 102 27 53 82 101 134 117 73 23 115 19 187 -15z m762 -391
c-3 -8 -6 -5 -6 6 -1 11 2 17 5 13 3 -3 4 -12 1 -19z m-977 -318 c36 -117 68
-169 149 -239 34 -29 60 -56 57 -58 -2 -3 -45 23 -95 58 -80 56 -92 68 -106
108 -26 81 -45 175 -44 221 1 25 3 36 6 25 2 -11 17 -63 33 -115z m-100 3 c12
-27 25 -66 27 -88 3 -22 11 -54 19 -72 22 -48 18 -139 -6 -163 -11 -11 -26
-17 -35 -14 -36 14 -76 137 -90 275 -8 77 3 109 39 109 19 0 29 -11 46 -47z
m915 -43 c-11 -4 -60 -8 -110 -9 -49 -1 -99 -2 -110 -3 -11 0 -33 1 -50 3 -16
1 22 6 85 9 183 10 208 10 185 0z m605 -37 c-1 -29 -28 -31 -480 -37 -256 -4
-482 -9 -502 -13 -49 -7 -68 1 -61 26 5 20 13 21 232 24 547 6 811 6 811 0z
m-1453 -25 c-3 -8 -6 -5 -6 6 -1 11 2 17 5 13 3 -3 4 -12 1 -19z m1439 -41 c8
-8 9 -781 0 -804 l-7 -23 -434 0 -433 0 -5 28 c-3 15 -5 201 -6 414 l-1 388
287 2 c358 4 593 2 599 -5z m-1621 -62 c6 -29 6 -29 -9 -11 -9 11 -16 29 -16
40 0 28 17 8 25 -29z m239 -33 c41 -82 41 -89 3 -101 -45 -15 -117 -78 -117
-101 0 -44 57 -69 190 -86 52 -7 53 -7 26 -17 -28 -9 -85 -1 -172 24 -35 11
-65 40 -86 84 -16 33 -42 144 -36 151 3 2 16 -13 29 -34 30 -46 60 -52 94 -18
22 22 25 34 25 91 0 76 9 77 44 7z m91 -32 l40 -25 -30 -3 c-22 -3 -35 3 -52
23 -25 28 -31 51 -10 38 6 -5 30 -20 52 -33z m268 -37 c-7 -2 -21 -2 -30 0
-10 3 -4 5 12 5 17 0 24 -2 18 -5z m87 -3 c0 -5 -2 -10 -4 -10 -3 0 -8 5 -11
10 -3 6 -1 10 4 10 6 0 11 -4 11 -10z m-115 -47 c74 -23 84 -35 61 -77 -27
-50 -55 -59 -207 -64 -148 -5 -237 8 -263 37 -15 17 -15 20 4 43 60 77 257
106 405 61z m93 -3 c2 -14 -1 -20 -5 -14 -4 5 -19 18 -33 28 l-25 17 30 -3
c24 -2 31 -8 33 -28z m-238 -174 c0 -9 -30 -14 -35 -6 -4 6 3 10 14 10 12 0
21 -2 21 -4z m0 -77 c0 -54 44 -198 75 -244 l25 -36 -37 8 c-58 12 -126 8
-163 -10 -18 -10 -35 -16 -37 -14 -1 2 6 21 16 43 30 63 71 202 71 243 0 42 5
51 32 51 14 0 18 -8 18 -41z m80 -305 c22 -12 11 -13 -90 -13 -90 0 -110 3
-90 11 66 28 130 28 180 2z m67 -51 c2 -6 -4 -13 -13 -17 -21 -8 -26 -3 -18
18 7 18 25 17 31 -1z m-297 -18 c0 -9 -9 -15 -25 -15 -24 0 -32 10 -18 23 12
13 43 7 43 -8z m584 -14 c3 -5 -1 -12 -10 -15 -20 -8 -29 -1 -19 13 8 13 22
14 29 2z m696 -12 c0 -5 -9 -9 -20 -9 -19 0 -26 11 -14 23 8 8 34 -3 34 -14z"/>
<path d="M4614 1813 c-3 -16 -9 -41 -13 -57 l-7 -28 -37 41 c-32 35 -67 54
-67 35 0 -3 21 -31 48 -61 43 -52 47 -60 47 -109 0 -62 17 -73 26 -17 15 94
30 180 36 201 4 16 1 22 -11 22 -9 0 -18 -12 -22 -27z"/>
<path d="M4417 1783 c-4 -3 -7 -25 -7 -47 0 -70 -14 -75 -46 -17 -15 28 -32
50 -38 48 -12 -4 -30 -133 -22 -154 10 -26 26 -12 26 21 0 64 9 70 41 26 17
-23 34 -38 39 -35 5 3 12 22 15 43 11 67 15 68 41 24 14 -23 29 -42 35 -42 14
0 11 10 -23 77 -31 59 -45 72 -61 56z"/>
<path d="M4143 1715 c-12 -9 -27 -32 -33 -53 -14 -50 11 -86 64 -90 30 -3 42
2 67 28 28 27 30 35 24 68 -4 20 -11 43 -17 50 -14 17 -79 15 -105 -3z m83
-30 c30 -45 -14 -103 -63 -84 -30 11 -31 61 -3 89 27 27 46 25 66 -5z"/>
<path d="M3996 1686 c-56 -13 -74 -36 -29 -36 26 0 30 -5 42 -47 20 -73 20
-73 31 -73 14 0 12 47 -4 93 -14 37 -13 39 11 48 13 5 21 13 18 19 -7 11 -3
12 -69 -4z"/>
<path d="M3563 1663 c-68 -17 -103 -30 -103 -39 0 -8 8 -14 19 -14 20 0 43
-56 56 -137 6 -41 28 -72 38 -56 3 5 -3 44 -14 88 -31 122 -32 118 26 132 59
15 75 11 75 -18 0 -32 39 -157 51 -165 22 -13 21 9 -4 103 -24 86 -25 99 -12
109 42 31 4 30 -132 -3z"/>
<path d="M5818 1678 c-40 -31 -43 -106 -5 -133 38 -26 101 -12 129 29 21 31
-3 35 -32 6 -22 -22 -80 -28 -80 -7 0 6 19 25 41 41 52 37 52 70 -1 74 -19 2
-43 -3 -52 -10z m57 -17 c5 -10 -40 -51 -56 -51 -15 0 -10 19 11 40 22 22 36
25 45 11z"/>
<path d="M5703 1647 c-6 -6 -22 -39 -37 -71 -14 -32 -30 -56 -34 -52 -4 4 -12
26 -17 49 -7 24 -18 43 -27 45 -14 3 -14 -4 1 -70 22 -97 39 -100 82 -13 17
36 34 64 36 62 2 -2 9 -24 16 -47 14 -50 37 -65 37 -25 0 30 -29 123 -40 130
-4 3 -12 -1 -17 -8z"/>
<path d="M3823 1640 c-31 -12 -56 -65 -48 -100 8 -38 27 -52 71 -53 49 -1 84
38 84 93 0 58 -46 84 -107 60z m75 -58 c2 -22 -3 -41 -14 -53 -32 -36 -77 -18
-77 30 0 42 20 63 57 59 27 -3 31 -7 34 -36z"/>
<path d="M5515 1599 c-4 -5 -4 -21 -1 -34 5 -18 1 -25 -14 -29 -11 -3 -29 -8
-39 -11 -15 -5 -21 1 -26 25 -4 18 -13 30 -22 30 -17 0 -14 -35 7 -112 13 -47
43 -53 34 -8 -6 25 -3 31 20 40 43 16 53 12 65 -22 8 -23 14 -29 22 -21 9 9 7
30 -6 82 -17 68 -26 83 -40 60z"/>
<path d="M5277 1540 c-74 -59 -20 -175 65 -139 18 8 38 15 43 15 6 1 13 2 18
3 4 0 -2 18 -13 38 -11 21 -20 50 -20 64 0 43 -50 53 -93 19z m68 -56 c5 -34
3 -49 -7 -55 -24 -15 -45 -9 -56 16 -17 37 4 85 38 85 13 0 19 -11 25 -46z"/>
<path d="M5101 1501 c-11 -7 -12 -20 -1 -76 7 -37 19 -69 26 -72 19 -7 79 15
99 37 16 17 15 20 -5 40 -11 11 -18 25 -15 30 3 5 1 19 -5 30 -8 15 -21 20
-48 20 -20 0 -43 -4 -51 -9z m68 -20 c17 -11 5 -31 -19 -31 -21 0 -34 15 -25
30 8 12 25 13 44 1z m31 -71 c0 -6 -12 -16 -26 -22 -20 -10 -27 -9 -34 2 -5 8
-6 18 -4 22 7 12 64 10 64 -2z"/>
<path d="M4953 1460 c-50 -30 -62 -101 -22 -132 33 -28 76 -23 111 12 26 27
29 35 24 68 -7 39 -37 72 -65 72 -9 0 -31 -9 -48 -20z m78 -47 c9 -46 -13 -75
-54 -71 -29 3 -32 7 -35 40 -2 28 2 40 20 52 35 25 61 17 69 -21z"/>
<path d="M4730 1413 c1 -22 57 -234 65 -241 14 -15 24 16 15 48 -11 39 -12 36
32 58 27 14 34 24 36 53 6 74 -41 121 -91 90 -14 -9 -22 -10 -30 -2 -16 16
-27 13 -27 -6z m110 -32 c25 -47 -2 -107 -38 -85 -23 15 -36 72 -21 90 16 20
47 17 59 -5z"/>
<path d="M4626 1325 c-15 -36 -32 -63 -36 -60 -4 2 -13 25 -20 50 -7 25 -19
45 -26 45 -18 0 -17 -7 2 -85 10 -40 22 -65 30 -65 15 0 56 60 68 98 11 33 21
27 34 -24 14 -51 39 -57 34 -7 -5 47 -29 108 -44 111 -8 1 -24 -23 -42 -63z"/>
<path d="M4435 1328 c-2 -7 -6 -34 -10 -60 -3 -27 -10 -48 -14 -48 -4 0 -18
20 -30 45 -38 76 -61 54 -61 -57 0 -45 3 -58 15 -58 11 0 15 12 15 45 0 25 3
45 8 45 4 -1 16 -15 27 -33 29 -46 48 -41 58 16 5 26 13 47 18 47 5 0 9 -3 9
-7 0 -5 9 -23 21 -42 13 -22 24 -30 30 -24 7 7 -2 33 -26 77 -36 65 -52 79
-60 54z"/>
<path d="M4207 1274 c-4 -4 -7 -21 -7 -38 0 -17 -3 -41 -6 -54 -5 -18 -9 -20
-20 -11 -8 6 -14 16 -14 21 0 6 -10 23 -21 40 -29 41 -40 25 -46 -66 -5 -64
-3 -76 10 -76 12 0 17 13 19 53 l3 52 28 -43 c15 -24 33 -42 40 -39 7 2 16 25
21 50 5 26 12 47 16 47 4 0 15 -16 26 -35 10 -19 24 -35 31 -35 18 0 16 16 -4
46 -9 14 -23 39 -32 57 -16 32 -32 43 -44 31z"/>
<path d="M3990 1223 c-39 -11 -60 -29 -70 -58 -24 -74 46 -135 105 -91 10 7
27 11 37 8 21 -5 23 6 3 32 -8 10 -17 38 -21 61 -6 43 -21 57 -54 48z m26 -68
c15 -45 5 -65 -31 -65 -37 0 -48 59 -18 92 22 25 33 19 49 -27z"/>
<path d="M5470 1212 c0 -22 41 -167 50 -176 21 -21 21 6 -1 93 -14 58 -27 91
-36 91 -7 0 -13 -4 -13 -8z"/>
<path d="M3745 1168 c-3 -8 5 -53 18 -99 14 -46 28 -99 32 -116 3 -19 13 -33
21 -33 16 0 17 13 5 57 -9 30 -7 33 27 50 33 16 37 23 40 61 4 56 -18 92 -56
92 -16 0 -33 -5 -40 -12 -8 -8 -15 -8 -26 2 -13 10 -17 10 -21 -2z m105 -28
c6 -12 10 -35 8 -53 -2 -25 -8 -33 -27 -35 -28 -4 -41 12 -41 54 0 51 39 73
60 34z"/>
<path d="M3642 1139 c-18 -6 -35 -16 -38 -23 -7 -19 30 -129 46 -134 10 -4 11
4 6 34 -21 106 -25 95 37 108 15 4 27 11 27 16 0 12 -34 11 -78 -1z"/>
<path d="M5373 1090 c-38 -23 -45 -63 -14 -81 17 -11 17 -14 2 -40 -25 -43 -3
-48 31 -6 34 42 44 45 53 17 7 -22 35 -28 35 -7 0 6 -9 39 -19 72 -21 69 -37
77 -88 45z m47 -19 c0 -5 3 -16 6 -24 5 -15 -21 -27 -43 -20 -17 6 -16 18 3
37 17 18 34 21 34 7z"/>
<path d="M3446 1075 c-19 -18 -26 -34 -26 -63 0 -48 24 -72 72 -72 51 0 92 49
84 98 -7 47 -23 62 -66 62 -26 0 -45 -8 -64 -25z m80 -3 c35 -22 20 -97 -21
-104 -53 -11 -75 47 -35 90 22 23 37 27 56 14z"/>
<path d="M5226 1005 c-16 -36 -32 -65 -37 -65 -4 0 -14 21 -21 47 -17 60 -44
73 -35 17 22 -131 44 -143 92 -52 17 32 33 58 36 58 3 0 10 -19 15 -42 10 -45
34 -65 34 -26 -1 45 -26 123 -41 126 -11 2 -25 -18 -43 -63z"/>
<path d="M3300 1050 c-8 -5 -26 -6 -39 -3 -28 7 -28 15 13 -142 15 -55 31
-104 35 -108 16 -16 22 12 12 50 -11 40 -3 53 31 53 10 0 25 14 33 31 34 64
-30 154 -85 119z m47 -32 c20 -26 24 -66 7 -83 -24 -24 -48 -14 -60 25 -10 29
-9 38 4 53 18 20 36 22 49 5z"/>
<path d="M5040 1017 c-41 -11 -45 -14 -44 -42 2 -41 20 -105 33 -118 21 -21
24 4 8 60 -8 32 -13 61 -11 65 3 4 20 10 39 14 20 3 35 12 35 20 0 16 0 16
-60 1z"/>
<path d="M3108 1004 c-29 -9 -48 -20 -48 -29 0 -38 34 -135 47 -135 16 0 12
39 -9 93 -13 33 -6 42 40 52 23 5 33 3 36 -7 2 -7 10 -34 17 -60 7 -27 19 -48
26 -48 17 0 16 18 -4 90 -18 68 -23 69 -105 44z"/>
<path d="M5527 994 c-9 -10 2 -24 18 -24 9 0 12 6 9 15 -6 16 -17 19 -27 9z"/>
<path d="M4856 959 c-37 -29 -37 -99 -1 -127 24 -19 69 -20 81 -1 3 5 16 9 30
9 27 0 29 7 9 34 -8 10 -17 38 -21 62 -6 42 -8 44 -39 44 -18 0 -44 -9 -59
-21z m67 -36 c3 -16 9 -36 12 -45 5 -13 0 -20 -20 -28 -34 -13 -55 2 -55 37 0
60 52 89 63 36z"/>
<path d="M4725 928 c-2 -7 -6 -34 -10 -61 -7 -54 -16 -53 -45 4 -11 21 -27 39
-35 39 -8 0 -15 -1 -16 -2 0 -2 -3 -38 -5 -80 -5 -67 -4 -78 10 -78 12 0 16
10 16 45 0 25 4 45 9 45 5 0 19 -16 30 -36 12 -19 27 -34 34 -32 6 3 16 26 21
51 5 26 13 47 18 47 4 0 8 -3 8 -7 0 -5 9 -23 21 -42 13 -22 24 -30 30 -24 7
7 -2 33 -26 77 -36 65 -52 79 -60 54z"/>
<path d="M4369 845 c-57 -31 -62 -114 -8 -144 54 -30 119 14 119 81 0 67 -51
96 -111 63z m79 -56 c4 -42 -17 -69 -53 -69 -30 0 -48 30 -39 65 8 31 30 46
64 42 21 -2 25 -8 28 -38z"/>
<path d="M4203 808 c-27 -6 -43 -15 -43 -24 0 -10 7 -13 23 -9 21 6 25 1 42
-54 10 -35 24 -61 32 -61 16 0 16 6 -2 66 -19 62 -19 61 5 67 25 6 27 27 3 26
-10 -1 -37 -5 -60 -11z"/>
<path d="M4028 759 c-10 -5 -18 -17 -18 -24 0 -18 1 -18 36 -1 19 11 33 12 46
5 20 -11 16 -29 -6 -29 -8 0 -20 -7 -27 -16 -11 -14 -10 -16 16 -14 44 3 47 2
35 -19 -5 -11 -23 -22 -40 -26 -39 -9 -39 -25 0 -25 37 0 80 39 80 72 0 13 -9
38 -20 56 -16 26 -26 32 -52 32 -18 0 -41 -5 -50 -11z"/>
<path d="M3755 640 c-60 -15 -111 -32 -113 -39 -6 -17 22 -13 137 17 58 15
106 33 109 40 5 16 -3 15 -133 -18z"/>
<path d="M5545 238 c-25 -70 -34 -102 -30 -106 4 -4 18 25 24 50 1 4 6 21 11
38 8 29 4 43 -5 18z"/>
<path d="M5015 232 c-12 -13 -3 -19 23 -14 26 4 25 3 -18 -42 l-44 -46 52 0
c41 0 53 4 62 19 7 13 7 22 0 26 -5 3 -10 -3 -10 -14 0 -17 -6 -21 -35 -21
-19 0 -35 3 -35 7 0 4 18 25 40 48 l39 40 -35 1 c-19 0 -36 -2 -39 -4z"/>
<path d="M5732 233 c6 -21 -15 -84 -30 -92 -15 -9 -14 -10 6 -11 13 0 21 3 18
8 -2 4 2 15 9 25 12 16 13 15 20 -10 8 -35 23 -53 43 -53 13 0 12 3 -5 15 -29
21 -39 66 -17 82 23 17 10 43 -21 43 -14 0 -24 -3 -23 -7z m36 -20 c-2 -9 -8
-18 -15 -20 -7 -3 -9 3 -6 16 6 25 26 28 21 4z"/>
<path d="M5700 211 c-6 -11 -6 -22 -1 -25 5 -3 11 5 13 19 6 30 2 32 -12 6z"/>
<path d="M5145 200 c8 -14 -4 -50 -17 -50 -6 0 -8 11 -3 28 4 18 3 24 -4 17
-5 -5 -13 -22 -16 -36 -6 -25 -4 -27 25 -25 30 1 33 4 35 39 1 26 -2 37 -12
37 -8 0 -11 -5 -8 -10z"/>
<path d="M5225 200 c3 -5 8 -10 11 -10 2 0 4 5 4 10 0 6 -5 10 -11 10 -5 0 -7
-4 -4 -10z"/>
<path d="M5269 203 c-1 -5 -1 -11 0 -15 0 -4 -4 -19 -9 -33 -5 -14 -6 -25 -2
-25 7 0 32 57 32 73 0 10 -20 9 -21 0z"/>
<path d="M5309 201 c-1 -3 -1 -9 0 -13 0 -4 -4 -19 -9 -33 -5 -14 -6 -25 -2
-25 4 0 13 14 19 30 6 17 15 30 20 30 5 0 8 -13 5 -30 -4 -29 10 -41 23 -20 3
6 2 10 -4 10 -6 0 -8 12 -5 28 5 24 2 27 -20 28 -14 1 -27 -1 -27 -5z"/>
<path d="M5396 188 c-23 -33 -20 -58 7 -58 20 1 20 2 4 11 -17 10 -16 12 8 30
14 11 25 25 25 30 0 17 -29 9 -44 -13z m16 -10 c-7 -7 -12 -8 -12 -2 0 14 12
26 19 19 2 -3 -1 -11 -7 -17z"/>
<path d="M5485 200 c3 -5 8 -10 11 -10 2 0 4 5 4 10 0 6 -5 10 -11 10 -5 0 -7
-4 -4 -10z"/>
<path d="M5569 205 c-3 -5 -6 -26 -7 -45 -2 -33 -1 -33 9 -10 10 24 9 74 -2
55z"/>
<path d="M5625 202 c-13 -9 -18 -72 -6 -72 7 0 24 70 18 76 -1 2 -7 0 -12 -4z"/>
<path d="M5845 202 c-6 -4 -11 -21 -13 -38 -3 -29 0 -32 22 -30 15 0 26 6 26
11 0 6 3 21 5 35 5 23 4 23 -6 -2 -6 -16 -17 -28 -25 -28 -10 0 -11 6 -3 26
10 29 9 37 -6 26z"/>
<path d="M5460 189 c0 -8 7 -23 15 -33 11 -14 15 -16 15 -5 0 8 -7 23 -15 33
-11 14 -15 16 -15 5z"/>
<path d="M5200 184 c0 -5 7 -18 15 -28 12 -16 15 -17 15 -4 0 8 -7 21 -15 28
-8 7 -15 9 -15 4z"/>
<path d="M5185 140 c3 -5 11 -10 16 -10 6 0 7 5 4 10 -3 6 -11 10 -16 10 -6 0
-7 -4 -4 -10z"/>
<path d="M5435 140 c3 -5 13 -10 21 -10 8 0 12 5 9 10 -3 6 -13 10 -21 10 -8
0 -12 -4 -9 -10z"/>
</g>
</svg>
